<svg xmlns="http://www.w3.org/2000/svg" xml:space="preserve"
    style="fill-rule:evenodd;clip-rule:evenodd;stroke-linejoin:round;stroke-miterlimit:2" viewBox="0 0 256 256">
    <rect width="256" height="256" rx="6" ry="6" style="fill:url(#a)" />
    <path
        d="M.025 0C.023 0 .021-.003.021-.01v-.006c0-.002.002-.004.004-.004l.01-.001.013-.001.013-.003.008-.001c.033-.008.05-.027.05-.057v-.516a.062.062 0 0 0-.034-.059.092.092 0 0 0-.043-.011H.023C.021-.669.02-.67.02-.673v-.012c0-.002.001-.003.005-.003l.268-.008h.05a.224.224 0 0 1 .145.063.192.192 0 0 1 .058.14.148.148 0 0 1-.069.13.35.35 0 0 1-.047.025l.148.242a.21.21 0 0 0 .104.089c.003.001.005.003.005.007 0 .008-.005.012-.016.012a.212.212 0 0 1-.175-.083C.487-.084.477-.097.468-.113L.341-.311.225-.316H.221c-.005 0-.007.002-.007.006v.226c0 .017.005.031.015.04a.12.12 0 0 0 .052.018l.024.004a.09.09 0 0 0 .019.002c.004 0 .006.002.006.004v.012C.33-.001.328 0 .326 0H.025Zm.24-.671L.241-.67l-.017.001c-.007 0-.01.003-.01.008v.296l.001.014c.001.007.004.011.009.011l.05.003c.091 0 .147-.032.165-.098a.215.215 0 0 0 .01-.07.156.156 0 0 0-.048-.121.173.173 0 0 0-.123-.045H.265Z"
        style="fill:#fff;fill-rule:nonzero" transform="matrix(50 0 0 50 15 184.161)" />
    <path
        d="M.113-.257c-.006 0-.009.012-.009.035 0 .051.015.093.045.127s.068.052.112.052a.19.19 0 0 0 .128-.058l.003-.001h.002c.002 0 .004.001.006.005a.01.01 0 0 0 .005.006.296.296 0 0 1-.134.095.178.178 0 0 1-.059.009.14.14 0 0 1-.067-.018.184.184 0 0 1-.059-.048.232.232 0 0 1-.052-.155c0-.061.019-.118.057-.168a.181.181 0 0 1 .155-.077c.047 0 .085.021.115.064a.2.2 0 0 1 .045.111c0 .014-.003.021-.01.021H.113Zm.005-.047c0 .006.003.009.009.009h.184C.319-.295.324-.3.324-.31a.113.113 0 0 0-.032-.072C.271-.407.248-.419.223-.419c-.024 0-.046.011-.067.033a.161.161 0 0 0-.038.076v.006Z"
        style="fill:#fff;fill-rule:nonzero" transform="matrix(50 0 0 50 49.644 184.161)" />
    <path
        d="M.271-.334c0 .007-.003.011-.008.011S.253-.327.25-.335a.166.166 0 0 0-.034-.057.076.076 0 0 0-.058-.025c-.03 0-.05.015-.06.045a.08.08 0 0 0-.005.031c0 .011.007.023.02.036a.364.364 0 0 0 .068.047.402.402 0 0 1 .068.047.13.13 0 0 1 .049.1.112.112 0 0 1-.042.091.155.155 0 0 1-.098.033.18.18 0 0 1-.054-.008L.076-.003C.074-.003.07 0 .065.005.059.01.055.013.052.013H.043a1.001 1.001 0 0 1-.011-.115l.001-.011.006-.001a.01.01 0 0 1 .007.003l.004.006.01.022c.022.047.056.071.102.071a.06.06 0 0 0 .049-.023.075.075 0 0 0 .019-.05.072.072 0 0 0-.015-.047.15.15 0 0 0-.036-.035c-.015-.01-.03-.021-.047-.03C.066-.236.033-.278.033-.325c0-.035.015-.065.045-.09A.144.144 0 0 1 .17-.453c.032 0 .055.004.07.011.016.006.024.012.027.017.003.005.004.02.004.046v.045Z"
        style="fill:#fff;fill-rule:nonzero" transform="matrix(50 0 0 50 72.349 184.161)" />
    <path
        d="M.037-.219c0-.064.022-.119.068-.166a.232.232 0 0 1 .329-.001c.046.044.07.1.07.165A.229.229 0 0 1 .27.013a.23.23 0 0 1-.233-.232Zm.121.125c.032.054.076.081.131.081a.109.109 0 0 0 .097-.051A.224.224 0 0 0 .42-.19a.295.295 0 0 0-.047-.154C.341-.396.298-.422.245-.422a.105.105 0 0 0-.093.051.225.225 0 0 0-.034.129c0 .052.013.102.04.148Z"
        style="fill:#fff;fill-rule:nonzero" transform="matrix(50 0 0 50 89.072 184.161)" />
    <path
        d="M.393-.154.392-.257a.252.252 0 0 0-.011-.088.097.097 0 0 0-.027-.039.077.077 0 0 0-.045-.012.37.37 0 0 0-.119.043c-.008.005-.012.01-.013.014v.263c0 .033.018.052.053.056.015.003.023.006.023.011 0 .006-.002.008-.005.009H.03C.027-.001.025-.003.025-.007c0-.006.008-.01.023-.013.035-.004.053-.023.053-.056v-.28C.101-.37.094-.38.079-.385L.058-.39.04-.395.031-.398.03-.406c0-.003.002-.006.007-.009l.125-.059a.026.026 0 0 1 .007-.003c.005 0 .008.004.008.012v.076c.001.004.003.005.004.005a2.211 2.211 0 0 1 .106-.049.175.175 0 0 1 .07-.02c.075 0 .113.069.113.206l-.005.143v.028c0 .025.013.042.038.05.011.003.021.006.031.007l.02.004c.003.002.005.004.005.008S.557-.001.554 0H.318C.315-.001.313-.003.313-.007c0-.006.008-.01.023-.013.035-.004.053-.025.053-.06a.61.61 0 0 0 .004-.074Z"
        style="fill:#fff;fill-rule:nonzero" transform="matrix(50 0 0 50 116.099 184.161)" />
    <path
        d="M.034 0C.031-.001.029-.003.029-.007c0-.006.008-.01.023-.012.035-.005.053-.023.053-.055v-.259c0-.013-.008-.023-.022-.028L.062-.366.044-.371a.03.03 0 0 1-.009-.003L.034-.382c0-.003.002-.007.007-.009L.166-.45a.017.017 0 0 1 .007-.003c.005 0 .008.004.008.012v.367c0 .032.018.05.053.055.015.002.023.006.023.011 0 .005-.002.007-.005.008H.034Zm.102-.59A.053.053 0 0 1 .1-.603a.043.043 0 0 1-.015-.035c0-.015.005-.027.015-.036a.048.048 0 0 1 .035-.013c.013 0 .024.005.034.016.009.01.014.021.014.033a.049.049 0 0 1-.014.033.041.041 0 0 1-.033.015Z"
        style="fill:#fff;fill-rule:nonzero" transform="matrix(50 0 0 50 144.517 184.161)" />
    <path
        d="M.153-.375c-.002 0-.003.001-.003.004v.269c0 .02.004.035.013.046a.039.039 0 0 0 .033.017.078.078 0 0 0 .035-.007.16.16 0 0 0 .045-.028c.006-.005.011-.007.016-.007.005 0 .007.001.007.003 0 .008-.001.013-.003.015C.257-.012.22.013.183.013.147.013.12.002.101-.021a.131.131 0 0 1-.027-.083v-.271H.037c-.009 0-.014-.003-.014-.009-.001-.006 0-.01.002-.012A.494.494 0 0 0 .11-.471.322.322 0 0 1 .134-.5c.011-.013.019-.019.024-.019.006 0 .009.002.009.007L.15-.448c0 .006.003.009.008.009h.124c.015 0 .022.02.022.061 0 .002-.002.003-.004.003H.153Z"
        style="fill:#fff;fill-rule:nonzero" transform="matrix(50 0 0 50 158.579 184.161)" />
    <path
        d="M.113-.257c-.006 0-.009.012-.009.035 0 .051.015.093.045.127s.068.052.112.052a.19.19 0 0 0 .128-.058l.003-.001h.002c.002 0 .004.001.006.005a.01.01 0 0 0 .005.006.296.296 0 0 1-.134.095.178.178 0 0 1-.059.009.14.14 0 0 1-.067-.018.184.184 0 0 1-.059-.048.232.232 0 0 1-.052-.155c0-.061.019-.118.057-.168a.181.181 0 0 1 .155-.077c.047 0 .085.021.115.064a.2.2 0 0 1 .045.111c0 .014-.003.021-.01.021H.113Zm.005-.047c0 .006.003.009.009.009h.184C.319-.295.324-.3.324-.31a.113.113 0 0 0-.032-.072C.271-.407.248-.419.223-.419c-.024 0-.046.011-.067.033a.161.161 0 0 0-.038.076v.006Z"
        style="fill:#fff;fill-rule:nonzero" transform="matrix(50 0 0 50 174.375 184.161)" />
    <path
        d="M.003-.004v-.014c0-.002.002-.003.004-.003h.011L.06-.023a.16.16 0 0 0 .039-.005c.027-.008.04-.028.04-.059v-.515c0-.032-.019-.052-.057-.061L.049-.669h-.01C.036-.669.035-.67.035-.673v-.012c0-.002.001-.003.004-.003h.464c.006 0 .011.001.013.003.003.002.004.006.005.014L.53-.53c0 .003-.003.005-.008.005-.004 0-.008-.001-.01-.004a.148.148 0 0 1-.008-.036.14.14 0 0 0-.017-.051C.479-.63.465-.639.444-.642H.241c-.005 0-.007.002-.007.006v.253c0 .003.002.005.005.005h.169c.044 0 .066-.026.066-.077 0-.002.001-.003.004-.003h.011c.003 0 .004.001.004.003v.209c0 .003-.001.004-.004.004H.478c-.003 0-.004-.001-.004-.004 0-.048-.014-.076-.042-.083a.1.1 0 0 0-.025-.003H.239c-.003 0-.005.002-.005.005v.238c0 .024.012.038.034.041l.021.002h.162c.034 0 .06-.015.078-.045a.159.159 0 0 0 .025-.073C.555-.173.56-.177.568-.177c.004 0 .006.002.006.006l-.016.164C.556-.002.554 0 .551 0H.007C.005 0 .003-.001.003-.004Z"
        style="fill:#fff;fill-rule:nonzero" transform="matrix(50 0 0 50 15 229.911)" />
    <path
        d="M.45-.439c.002 0 .004.002.004.007 0 .006-.002.009-.004.01a.126.126 0 0 0-.06.034.196.196 0 0 0-.018.021l-.095.113-.002.006c0 .004.015.023.043.058l.117.146a.06.06 0 0 0 .022.013l.022.011a.016.016 0 0 1 .005.011c0 .005-.002.008-.005.009H.286C.283 0 .281-.003.281-.008s.003-.008.008-.009L.308-.02c.017-.002.025-.009.025-.02 0-.008-.004-.016-.012-.025L.237-.17a.035.035 0 0 0-.006-.009C.23-.181.227-.182.223-.182c-.005 0-.008.002-.01.005l-.008.01-.077.092a.045.045 0 0 0-.01.027c0 .011.007.019.02.025a.094.094 0 0 0 .036.009c.003 0 .004.002.004.007S.177 0 .174 0H.018C.012 0 .01-.003.01-.009c0-.004.009-.011.027-.019a.12.12 0 0 0 .033-.02L.205-.21.203-.213.184-.237l-.049-.06-.084-.104a.079.079 0 0 0-.024-.014C.014-.421.008-.425.008-.43.009-.436.013-.439.02-.439h.182c.002 0 .003.002.003.006s-.002.006-.007.007l-.016.005c-.016.005-.024.013-.024.024 0 .008.002.013.005.016l.075.093a.07.07 0 0 1 .008.01c.003.003.006.005.008.005s.004-.002.007-.005l.072-.083A.046.046 0 0 0 .345-.39c0-.009-.003-.016-.008-.019A.056.056 0 0 0 .32-.418L.302-.423C.297-.424.294-.428.294-.432c0-.005.002-.007.006-.007h.15Z"
        style="fill:#fff;fill-rule:nonzero" transform="matrix(50 0 0 50 45.86 229.911)" />
    <path
        d="M.402-.051A.215.215 0 0 1 .25.013.453.453 0 0 1 .168.002C.162.002.159.004.159.008L.158.02v.209c0 .024.014.04.042.048a.167.167 0 0 0 .035.007c.011.002.018.003.021.005C.259.29.26.292.26.296S.259.302.255.303H.011C.007.302.006.3.006.296c0-.006.008-.01.023-.012C.064.279.082.26.082.229v-.586c0-.014-.008-.023-.023-.028C.053-.388.046-.389.038-.391L.02-.395a.02.02 0 0 1-.008-.004C.011-.4.01-.402.01-.406s.003-.007.008-.01l.124-.059.008-.002c.005 0 .008.004.008.012v.062c0 .003.002.005.005.005A.082.082 0 0 0 .19-.412a.235.235 0 0 1 .129-.04c.032 0 .06.013.086.038a.258.258 0 0 1 .069.139.221.221 0 0 1-.005.114.252.252 0 0 1-.067.11Zm-.14-.35c-.044 0-.079.012-.104.038v.274c0 .016.002.027.008.032a.157.157 0 0 0 .066.029c.059.013.104-.001.137-.042a.172.172 0 0 0 .034-.108c0-.081-.018-.143-.055-.183a.119.119 0 0 0-.086-.04Z"
        style="fill:#fff;fill-rule:nonzero" transform="matrix(50 0 0 50 70.689 229.911)" />
    <path
        d="M.214-.019c.016.002.023.006.023.012 0 .004-.001.006-.005.007H.015C.011-.001.01-.003.01-.007c0-.006.007-.01.023-.012.035-.005.052-.023.052-.055v-.609c0-.014-.007-.023-.022-.028a.083.083 0 0 0-.021-.006L.024-.721a.02.02 0 0 1-.008-.004C.015-.726.014-.728.014-.732s.003-.007.007-.01L.146-.8a.026.026 0 0 1 .007-.003c.006 0 .009.004.009.011v.718c0 .032.017.05.052.055Z"
        style="fill:#fff;fill-rule:nonzero" transform="matrix(50 0 0 50 97.3 229.911)" />
    <path
        d="M.037-.219c0-.064.022-.119.068-.166a.232.232 0 0 1 .329-.001c.046.044.07.1.07.165A.229.229 0 0 1 .27.013a.23.23 0 0 1-.233-.232Zm.121.125c.032.054.076.081.131.081a.109.109 0 0 0 .097-.051A.224.224 0 0 0 .42-.19a.295.295 0 0 0-.047-.154C.341-.396.298-.422.245-.422a.105.105 0 0 0-.093.051.225.225 0 0 0-.034.129c0 .052.013.102.04.148Z"
        style="fill:#fff;fill-rule:nonzero" transform="matrix(50 0 0 50 110.02 229.911)" />
    <path
        d="M.331-.35a.12.12 0 0 1-.017-.006.157.157 0 0 0-.064-.019c-.015 0-.031.01-.048.029-.016.019-.025.036-.025.051v.221c0 .024.014.04.043.049l.034.007a.094.094 0 0 1 .021.004.008.008 0 0 1 .005.007C.28-.003.278-.001.275 0H.03C.027-.001.025-.003.025-.007c0-.006.008-.01.023-.012.035-.005.053-.023.053-.055v-.259c0-.013-.007-.023-.022-.028L.058-.366.04-.371.031-.374.03-.382c0-.003.002-.007.007-.009L.162-.45a.026.026 0 0 1 .007-.003c.005 0 .008.004.008.012v.079c0 .004.001.006.003.006.003 0 .009-.008.02-.023.031-.043.057-.065.077-.065.011 0 .029.005.052.014.024.009.036.017.036.023a.098.098 0 0 1-.011.034C.346-.358.339-.35.331-.35Z"
        style="fill:#fff;fill-rule:nonzero" transform="matrix(50 0 0 50 137.046 229.911)" />
    <path
        d="M.113-.257c-.006 0-.009.012-.009.035 0 .051.015.093.045.127s.068.052.112.052a.19.19 0 0 0 .128-.058l.003-.001h.002c.002 0 .004.001.006.005a.01.01 0 0 0 .005.006.296.296 0 0 1-.134.095.178.178 0 0 1-.059.009.14.14 0 0 1-.067-.018.184.184 0 0 1-.059-.048.232.232 0 0 1-.052-.155c0-.061.019-.118.057-.168a.181.181 0 0 1 .155-.077c.047 0 .085.021.115.064a.2.2 0 0 1 .045.111c0 .014-.003.021-.01.021H.113Zm.005-.047c0 .006.003.009.009.009h.184C.319-.295.324-.3.324-.31a.113.113 0 0 0-.032-.072C.271-.407.248-.419.223-.419c-.024 0-.046.011-.067.033a.161.161 0 0 0-.038.076v.006Z"
        style="fill:#fff;fill-rule:nonzero" transform="matrix(50 0 0 50 155.283 229.911)" />
    <path
        d="M.331-.35a.12.12 0 0 1-.017-.006.157.157 0 0 0-.064-.019c-.015 0-.031.01-.048.029-.016.019-.025.036-.025.051v.221c0 .024.014.04.043.049l.034.007a.094.094 0 0 1 .021.004.008.008 0 0 1 .005.007C.28-.003.278-.001.275 0H.03C.027-.001.025-.003.025-.007c0-.006.008-.01.023-.012.035-.005.053-.023.053-.055v-.259c0-.013-.007-.023-.022-.028L.058-.366.04-.371.031-.374.03-.382c0-.003.002-.007.007-.009L.162-.45a.026.026 0 0 1 .007-.003c.005 0 .008.004.008.012v.079c0 .004.001.006.003.006.003 0 .009-.008.02-.023.031-.043.057-.065.077-.065.011 0 .029.005.052.014.024.009.036.017.036.023a.098.098 0 0 1-.011.034C.346-.358.339-.35.331-.35Z"
        style="fill:#fff;fill-rule:nonzero" transform="matrix(50 0 0 50 177.988 229.911)" />
    <defs>
        <linearGradient id="a" x1="0" x2="1" y1="0" y2="0" gradientTransform="matrix(256 -256 256 256 0 256)"
            gradientUnits="userSpaceOnUse">
            <stop offset="0" style="stop-color:#da6d56;stop-opacity:1" />
            <stop offset="1" style="stop-color:#e89e87;stop-opacity:1" />
        </linearGradient>
    </defs>
</svg>